<?xml version="1.0" encoding="utf-8"?>
<!-- Generator: Adobe Illustrator 23.0.1, SVG Export Plug-In . SVG Version: 6.00 Build 0)  -->
<svg version="1.1" id="Layer_1" xmlns="http://www.w3.org/2000/svg" xmlns:xlink="http://www.w3.org/1999/xlink" x="0px" y="0px"
	 viewBox="0 0 1558 669" style="enable-background:new 0 0 1558 669;" xml:space="preserve">
<style type="text/css">
	.st0{fill:#FFFFFF;}
	.st1{fill:#220000;}
	.st2{fill:none;}
</style>
<g>
	<path d="M1533,25v619H660V25H1533 M1541,17H652v635h889V17L1541,17z"/>
</g>
<rect x="17" y="17" width="643" height="635"/>
<g>
	<path class="st0" d="M517.71,518.34c25.23,21.93,46.33,40.27,71.04,61.76c-38.22,5.48-70.07,8.19-94.64-22.31
		c-29.15-36.18-67.05-48.31-112.79-42.37c-20.93,2.72-42.56,1.26-63.79,0.15c-32.7-1.71-49.64-17.23-49.9-49.2
		c-0.86-106.44-0.82-212.89-0.05-319.33c0.23-32.46,16.62-49.49,48.96-49.99c76.01-1.18,152.07-1.15,228.08-0.03
		c32.53,0.48,49.12,17.29,49.37,49.58c0.81,106.44,0.94,212.89-0.05,319.33C593.6,502.5,578.29,512.34,517.71,518.34z
		 M539.41,307.59c0-47.58-0.39-95.17,0.19-142.75c0.23-19.01-6.39-27.26-26.6-26.9c-54.65,0.98-109.35,1.06-164-0.03
		c-20.63-0.41-26.81,9.07-26.79,27.2c0.09,94.16,0.22,188.31-0.08,282.47c-0.07,21.28,9.91,27.36,30.19,26.94
		c52.62-1.1,105.31-1.33,157.92,0.07c23.31,0.62,29.95-8.72,29.49-30.33C538.76,398.72,539.43,353.15,539.41,307.59z"/>
	<path class="st1" d="M1028.8,580.64c-39.27,4.24-71.56,7.31-95.97-23.39c-28.26-35.55-65.37-47.12-109.94-41.83
		c-21.99,2.61-44.6,1.34-66.84,0.1c-32.42-1.81-48.88-17.59-49.12-49.98c-0.78-106.44-0.81-212.89,0.03-319.32
		c0.25-32.09,17.08-48.76,49.74-49.22c76.02-1.07,152.07-1.15,228.08,0.08c32.14,0.52,48.36,17.77,48.59,50.35
		c0.75,105.42,0.82,210.86,0.02,316.28c-0.29,38.36-12.81,46.88-75.46,55.37C981.68,539.71,1003.23,558.43,1028.8,580.64z
		 M978.78,308.04c0-46.57-0.64-93.16,0.29-139.71c0.43-21.42-5.82-31.14-29.31-30.51c-52.61,1.41-105.31,1.45-157.91-0.02
		c-23.01-0.64-30.53,8.57-30.45,29.89c0.34,92.13,0.34,184.26-0.02,276.39c-0.08,20.9,6.26,31.19,29.84,30.52
		c52.6-1.49,105.3-1.39,157.92-0.04c22.8,0.59,30.46-7.74,29.96-29.86C978.05,399.18,978.77,353.6,978.78,308.04z"/>
	<path class="st1" d="M1086.41,513.36c14.65-37.34,28.99-73.91,43.35-110.46c36.68-93.34,74.01-186.43,109.56-280.19
		c7.68-20.26,17.61-29.32,39.35-26.49c12.95,1.69,26.56-1.2,39.38,0.93c7.28,1.21,17.29,6.89,19.77,13.08
		c53.47,133.4,106.06,267.15,158.93,401.13c-50.83,11.06-53.4,11.92-69.02-35.02c-10.93-32.86-28.1-42.37-61.62-40.48
		c-55.56,3.13-111.44,1.76-167.14,0.36c-19.59-0.49-30.45,5.87-35.29,24.26c-1.28,4.86-3.72,9.41-5.59,14.12
		C1140.38,519.31,1140.39,519.31,1086.41,513.36z M1295.06,142.08c-2.7,0.28-5.39,0.55-8.09,0.83
		c-32.15,82.7-64.31,165.39-97.02,249.52c69.29,0,135.07,0,204,0C1360.12,306.77,1327.59,224.42,1295.06,142.08z"/>
	<path class="st0" d="M138.58,514.38c-18.95,0-34.75,0-52.32,0c0-138.91,0-276.33,0-415.79c17.35,0,33.87,0,52.32,0
		C138.58,237.02,138.58,374.44,138.58,514.38z"/>
</g>
<g>
	<rect x="791" y="162.15" class="st2" width="178" height="330.85"/>
	<path class="st1" d="M847.4,369.75l-0.8-10.4c-2.4-21.6,4.8-45.2,24.8-69.2c18-21.2,28-36.8,28-54.8c0-20.4-12.8-34-38-34.4
		c-14.4,0-30.4,4.8-40.4,12.4l-9.6-25.2c13.2-9.6,36-16,57.2-16c46,0,66.8,28.4,66.8,58.8c0,27.2-15.2,46.8-34.4,69.6
		c-17.6,20.8-24,38.4-22.8,58.8l0.4,10.4H847.4z M838.6,425.75c0-14.8,10-25.2,24-25.2c14,0,23.6,10.4,23.6,25.2
		c0,14-9.2,24.8-24,24.8C848.2,450.54,838.6,439.74,838.6,425.75z"/>
</g>
</svg>
